<?xml version="1.0" encoding="UTF-8"?>
<svg width="99px" height="99px" viewBox="0 0 99 99" version="1.1" xmlns="http://www.w3.org/2000/svg" xmlns:xlink="http://www.w3.org/1999/xlink">
    <!-- Generator: Sketch 42 (36781) - http://www.bohemiancoding.com/sketch -->
    <title>clear night</title>
    <desc>Created with Sketch.</desc>
    <defs></defs>
    <g id="Page-1" stroke="none" stroke-width="1" fill="none" fill-rule="evenodd">
        <g id="Weather-Icons" transform="translate(-343.000000, -411.000000)">
            <g id="clear-night" transform="translate(343.000000, 388.000000)">
                <path d="M48.988823,40.011177 C48.9962604,40.0115178 49.0036958,40.0118664 49.0111291,40.0122227 C49.0037366,40.1738886 49,40.3365079 49,40.5 C49,46.127624 53.4272756,50.7212017 58.9888709,50.9877773 C58.9884973,50.9959466 58.9881144,51.0041134 58.9877222,51.0122778 C53.5963997,51.2712768 49.2712768,55.5963997 49.0122778,60.9877222 C49.0041134,60.9881144 48.9959466,60.9884973 48.9877773,60.9888709 C48.7212017,55.4272756 44.127624,51 38.5,51 C38.3365079,51 38.1738886,51.0037366 38.0122227,51.0111291 C38.0118664,51.0036958 38.0115178,50.9962604 38.011177,50.988823 C38.1731873,50.9962472 38.3361554,51 38.5,51 C44.2989902,51 49,46.2989902 49,40.5 C49,40.3361554 48.9962472,40.1731873 48.988823,40.011177 Z" id="star" fill="#474A82"></path>
                <path d="M84.991816,23.008184 C84.9972666,23.0083657 85.0027165,23.0085504 85.0081656,23.0087381 C85.0027363,23.1718171 85,23.335589 85,23.5 C85,31.3380408 91.2190315,37.7235482 98.9918344,37.9912619 C98.9916402,37.997095 98.9914426,38.0029272 98.9912415,38.0087585 C91.3875839,38.2709535 85.2709535,44.3875839 85.0087585,51.9912415 C85.0029272,51.9914426 84.997095,51.9916402 84.9912619,51.9918344 C84.7235453,44.2190287 78.338039,38 70.5,38 C70.335589,38 70.1718171,38.0027363 70.0087274,38.008166 C70.0085504,38.0027165 70.0083657,37.9972666 70.008184,37.991816 C70.1714534,37.9972576 70.3354064,38 70.5,38 C78.5081293,38 85,31.5081293 85,23.5 C85,23.3354064 84.9972576,23.1714534 84.991816,23.008184 Z" id="star" fill="#2E325E"></path>
                <path d="M79.988823,65.011177 C79.9962604,65.0115178 80.0036958,65.0118664 80.0111291,65.0122227 C80.0037366,65.1738886 80,65.3365079 80,65.5 C80,71.127624 84.4272756,75.7212017 89.9888709,75.9877773 C89.9884973,75.9959466 89.9881144,76.0041134 89.9877222,76.0122778 C84.5963997,76.2712768 80.2712768,80.5963997 80.0122778,85.9877222 C80.0041134,85.9881144 79.9959466,85.9884973 79.9877773,85.9888709 C79.7212017,80.4272756 75.127624,76 69.5,76 C69.3365079,76 69.1738886,76.0037366 69.0122227,76.0111291 C69.0118664,76.0036958 69.0115178,75.9962604 69.011177,75.988823 C69.1731873,75.9962472 69.3361554,76 69.5,76 C75.2989902,76 80,71.2989902 80,65.5 C80,65.3361554 79.9962472,65.1731873 79.988823,65.011177 Z" id="star" fill="#2E325E"></path>
                <path d="M30.1414609,38.8247951 C12.69692,44.1181377 0,60.3263057 0,79.5 C0,102.972103 19.027897,122 42.5,122 C55.2307173,122 66.6540723,116.40252 74.4432062,107.53442 C48.2312749,104.048246 28,81.4088388 28,54 C28,48.7313075 28.7475628,43.6388496 30.1414675,38.8247931 Z" id="moon" fill="#FFEC78" opacity="0.7"></path>
                <path d="M36.0076471,99.0072053 C36.007502,99.0023981 36.0073589,98.9975904 36.0072178,98.9927822 C36.1708917,98.9975829 36.3351636,99 36.5,99 C45.6126988,99 53,91.6126988 53,82.5 C53,82.3351636 52.9975829,82.1708917 52.9927822,82.0072178 C52.9975904,82.0073589 53.0023981,82.007502 53.0072053,82.0076471 C53.0024129,82.1711789 53,82.3353077 53,82.5 C53,91.44302 60.1147587,98.7242981 68.9927947,98.9923529 C68.9926452,98.9974561 68.9924933,99.0025588 68.9923391,99.0076609 C60.2831119,99.270856 53.270856,106.283112 53.0076609,114.992339 C53.0025588,114.992493 52.9974561,114.992645 52.9923529,114.992795 C52.7242981,106.114759 45.44302,99 36.5,99 C36.3353077,99 36.1711789,99.0024129 36.0076471,99.0072053 Z" id="star" fill="#2E325E" opacity="0.7"></path>
            </g>
        </g>
    </g>
</svg>