<?xml version="1.0" encoding="UTF-8"?>
<svg width="163px" height="131px" viewBox="0 0 163 131" version="1.1" xmlns="http://www.w3.org/2000/svg" xmlns:xlink="http://www.w3.org/1999/xlink">
    <!-- Generator: Sketch 42 (36781) - http://www.bohemiancoding.com/sketch -->
    <title>sun-cloudy</title>
    <desc>Created with Sketch.</desc>
    <defs></defs>
    <g id="Page-1" stroke="none" stroke-width="1" fill="none" fill-rule="evenodd">
        <g id="Weather-Icons" transform="translate(-318.000000, -83.000000)">
            <g id="sun-cloudy" transform="translate(318.000000, 83.000000)">
                <g id="sun" fill="#F6EB60" opacity="0.7">
                    <path d="M63.9740227,104 C86.6176986,104 104.974023,85.8675335 104.974023,63.5 C104.974023,41.1324665 86.6176986,23 63.9740227,23 C41.3303469,23 22.9740227,41.1324665 22.9740227,63.5 C22.9740227,85.8675335 41.3303469,104 63.9740227,104 Z" id="Oval-1-copy-4" transform="translate(63.974023, 63.500000) rotate(-120.000000) translate(-63.974023, -63.500000) "></path>
                    <rect id="Rectangle-27" transform="translate(13.611216, 90.415064) rotate(-120.000000) translate(-13.611216, -90.415064) " x="11.1112159" y="81.9150635" width="5" height="17" rx="2"></rect>
                    <rect id="Rectangle-27" transform="translate(8.857417, 48.514778) rotate(-75.000000) translate(-8.857417, -48.514778) " x="6.35741714" y="40.014778" width="5" height="17" rx="2"></rect>
                    <rect id="Rectangle-27" transform="translate(35.415064, 14.611216) rotate(-30.000000) translate(-35.415064, -14.611216) " x="32.9150635" y="6.11121593" width="5" height="17" rx="2"></rect>
                    <rect id="Rectangle-27" transform="translate(78.614776, 8.857417) rotate(-345.000000) translate(-78.614776, -8.857417) " x="76.1147764" y="0.357417136" width="5" height="17" rx="2"></rect>
                    <rect id="Rectangle-27" transform="translate(113.611216, 34.415064) rotate(-300.000000) translate(-113.611216, -34.415064) " x="111.111216" y="25.9150635" width="5" height="17" rx="2"></rect>
                </g>
                <g id="cloud" transform="translate(34.000000, 46.000000)">
                    <path d="M63.5,85 C86.972103,85 106,65.972103 106,42.5 C106,19.027897 86.972103,0 63.5,0 C40.027897,0 21,19.027897 21,42.5 C21,65.972103 40.027897,85 63.5,85 Z" id="Oval-1" fill="#10BAC3" opacity="0.8"></path>
                    <path d="M32,85 C49.6731129,85 64,70.8969705 64,53.5 C64,36.1030295 49.6731129,22 32,22 C14.3268871,22 0,36.1030295 0,53.5 C0,70.8969705 14.3268871,85 32,85 Z" id="Oval-1-copy-2" fill="#9BDFB1" opacity="0.7"></path>
                    <path d="M105.5,83 C118.478692,83 129,72.4786923 129,59.5 C129,46.5213077 118.478692,36 105.5,36 C92.5213077,36 82,46.5213077 82,59.5 C82,72.4786923 92.5213077,83 105.5,83 Z" id="Oval-1-copy" fill="#9BDFF8" opacity="0.7"></path>
                </g>
            </g>
        </g>
    </g>
</svg>