<?xml version="1.0" encoding="UTF-8"?>
<svg width="122px" height="77px" viewBox="0 0 122 77" version="1.1" xmlns="http://www.w3.org/2000/svg" xmlns:xlink="http://www.w3.org/1999/xlink">
    <!-- Generator: Sketch 42 (36781) - http://www.bohemiancoding.com/sketch -->
    <title>windy</title>
    <desc>Created with Sketch.</desc>
    <defs></defs>
    <g id="Page-1" stroke="none" stroke-width="1" fill="none" fill-rule="evenodd">
        <g id="Weather-Icons" transform="translate(-561.000000, -263.000000)">
            <g id="windy" transform="translate(560.000000, 262.000000)">
                <path d="M18,43 C27.3888412,43 35,35.3888412 35,26 C35,16.6111588 27.3888412,9 18,9 C8.61115879,9 1,16.6111588 1,26 C1,35.3888412 8.61115879,43 18,43 Z" id="Oval-1" fill="#474A82" opacity="0.8" transform="translate(18.000000, 26.000000) rotate(5.000000) translate(-18.000000, -26.000000) "></path>
                <path d="M35.5,34 C44.6126988,34 52,26.6126988 52,17.5 C52,8.38730118 44.6126988,1 35.5,1 C26.3873012,1 19,8.38730118 19,17.5 C19,26.6126988 26.3873012,34 35.5,34 Z" id="Oval-1-copy-2" fill="#818DB0" opacity="0.7" transform="translate(35.500000, 17.500000) rotate(5.000000) translate(-35.500000, -17.500000) "></path>
                <path d="M54.5,39 C62.5081293,39 69,32.5081293 69,24.5 C69,16.4918707 62.5081293,10 54.5,10 C46.4918707,10 40,16.4918707 40,24.5 C40,32.5081293 46.4918707,39 54.5,39 Z" id="Oval-1-copy" fill="#DBDCE0" opacity="0.7" transform="translate(54.500000, 24.500000) rotate(5.000000) translate(-54.500000, -24.500000) "></path>
                <path d="M71.5,42 C77.8512749,42 83,36.8512749 83,30.5 C83,24.1487251 77.8512749,19 71.5,19 C65.1487251,19 60,24.1487251 60,30.5 C60,36.8512749 65.1487251,42 71.5,42 Z" id="Oval-1-copy" fill="#818DB0" opacity="0.7" transform="translate(71.500000, 30.500000) rotate(5.000000) translate(-71.500000, -30.500000) "></path>
                <path d="M89,41 C94.5228478,41 99,36.5228478 99,31 C99,25.4771522 94.5228478,21 89,21 C83.4771522,21 79,25.4771522 79,31 C79,36.5228478 83.4771522,41 89,41 Z" id="Oval-1-copy" fill="#DBDCE0" opacity="0.7" transform="translate(89.000000, 31.000000) rotate(5.000000) translate(-89.000000, -31.000000) "></path>
                <path d="M116.5,31 C120.089851,31 123,28.0898511 123,24.5 C123,20.9101489 120.089851,18 116.5,18 C112.910149,18 110,20.9101489 110,24.5 C110,28.0898511 112.910149,31 116.5,31 Z" id="Oval-1-copy" fill="#CEEEFB" opacity="0.7" transform="translate(116.500000, 24.500000) rotate(5.000000) translate(-116.500000, -24.500000) "></path>
                <path d="M25.5,75 C31.8512749,75 37,69.8512749 37,63.5 C37,57.1487251 31.8512749,52 25.5,52 C19.1487251,52 14,57.1487251 14,63.5 C14,69.8512749 19.1487251,75 25.5,75 Z" id="Oval-1" fill="#818DB0" opacity="0.8" transform="translate(25.500000, 63.500000) rotate(5.000000) translate(-25.500000, -63.500000) "></path>
                <path d="M43.5,68 C49.8512749,68 55,62.8512749 55,56.5 C55,50.1487251 49.8512749,45 43.5,45 C37.1487251,45 32,50.1487251 32,56.5 C32,62.8512749 37.1487251,68 43.5,68 Z" id="Oval-1-copy-2" fill="#DBDCE0" opacity="0.7" transform="translate(43.500000, 56.500000) rotate(5.000000) translate(-43.500000, -56.500000) "></path>
                <path d="M60,70 C65.5228478,70 70,65.5228478 70,60 C70,54.4771522 65.5228478,50 60,50 C54.4771522,50 50,54.4771522 50,60 C50,65.5228478 54.4771522,70 60,70 Z" id="Oval-1-copy" fill="#B9E8FA" opacity="0.7" transform="translate(60.000000, 60.000000) rotate(5.000000) translate(-60.000000, -60.000000) "></path>
                <path d="M72,77 C76.970563,77 81,72.970563 81,68 C81,63.029437 76.970563,59 72,59 C67.029437,59 63,63.029437 63,68 C63,72.970563 67.029437,77 72,77 Z" id="Oval-1-copy" fill="#818DB0" opacity="0.7" transform="translate(72.000000, 68.000000) rotate(5.000000) translate(-72.000000, -68.000000) "></path>
                <path d="M83.5,78 C87.6421358,78 91,74.6421358 91,70.5 C91,66.3578642 87.6421358,63 83.5,63 C79.3578642,63 76,66.3578642 76,70.5 C76,74.6421358 79.3578642,78 83.5,78 Z" id="Oval-1-copy" fill="#DBDCE0" opacity="0.7" transform="translate(83.500000, 70.500000) rotate(5.000000) translate(-83.500000, -70.500000) "></path>
                <path d="M102.5,74 C106.642136,74 110,70.6421358 110,66.5 C110,62.3578642 106.642136,59 102.5,59 C98.3578642,59 95,62.3578642 95,66.5 C95,70.6421358 98.3578642,74 102.5,74 Z" id="Oval-1-copy-2" fill="#DBDCE0" opacity="0.7" transform="translate(102.500000, 66.500000) rotate(5.000000) translate(-102.500000, -66.500000) "></path>
            </g>
        </g>
    </g>
</svg>